<?xml version="1.0" encoding="UTF-8" standalone="no" ?>
<!DOCTYPE svg PUBLIC "-//W3C//DTD SVG 1.1//EN" "http://www.w3.org/Graphics/SVG/1.1/DTD/svg11.dtd">
<svg xmlns="http://www.w3.org/2000/svg" xmlns:xlink="http://www.w3.org/1999/xlink" version="1.1" width="1280" height="1024" viewBox="0 0 1280 1024" xml:space="preserve">
<desc>Created with Fabric.js 5.3.0</desc>
<defs>
</defs>
<g transform="matrix(1 0 0 1 640 512)" id="background-logo"  >
<rect style="stroke: none; stroke-width: 0; stroke-dasharray: none; stroke-linecap: butt; stroke-dashoffset: 0; stroke-linejoin: miter; stroke-miterlimit: 4; fill: rgb(255,255,255); fill-opacity: 0; fill-rule: nonzero; opacity: 1;"  paint-order="stroke"  x="-640" y="-512" rx="0" ry="0" width="1280" height="1024" />
</g>
<g transform="matrix(1.9211538461538462 0 0 1.9211538461538462 643.083451923077 690.1877040167858)" id="text-logo"  >
<g style=""  paint-order="stroke"   >
		<g transform="matrix(1 0 0 1 0 0)" id="text-logo-path-0"  >
<path style="stroke: none; stroke-width: 0; stroke-dasharray: none; stroke-linecap: butt; stroke-dashoffset: 0; stroke-linejoin: miter; stroke-miterlimit: 4; fill: rgb(10,26,37); fill-rule: nonzero; opacity: 1;"  paint-order="stroke"  transform=" translate(-138.48000000000002, 21)" d="M 18.42 -42 L 3.84 -42 L 3.84 0 L 18.42 0 C 31.38 0 40.38 -8.1 40.38 -21 C 40.38 -33.9 31.38 -42 18.42 -42 Z M 13.44 -33 L 18.42 -33 C 25.68 -33 30.78 -28.56 30.78 -20.94 C 30.78 -13.32 25.68 -9 18.42 -9 L 13.44 -9 Z M 66.12 -42 L 55.92 -42 L 41.52 0 L 51.72 0 L 54.66 -9 L 67.38 -9 L 70.32 0 L 80.52 0 Z M 64.38 -18 L 57.66 -18 L 61.02 -28.32 Z M 98.7 -33 L 111.3 -33 L 111.3 -42 L 76.5 -42 L 76.5 -33 L 89.1 -33 L 89.1 0 L 98.7 0 Z M 131.88 -42 L 121.68 -42 L 107.28 0 L 117.48 0 L 120.42 -9 L 133.14 -9 L 136.08 0 L 146.28 0 Z M 130.14 -18 L 123.42 -18 L 126.78 -28.32 Z M 160.98 -42 L 150.78 -42 L 150.78 0 L 160.38 0 L 160.38 -20.1 L 169.38 0 L 180.18 0 L 189.18 -20.1 L 189.18 0 L 198.78 0 L 198.78 -42 L 188.58 -42 L 174.78 -10.74 Z M 225.66 -33 L 238.26 -33 L 238.26 -42 L 203.46 -42 L 203.46 -33 L 216.06 -33 L 216.06 0 L 225.66 0 Z M 252.54 -42 L 242.94 -42 L 242.94 0 L 273.12 0 L 273.12 -9 L 252.54 -9 Z" stroke-linecap="round" />
</g>
</g>
</g>
<g transform="matrix(1.9211538461538462 0 0 1.9211538461538462 640 402.13310581029623)" id="logo-logo"  >
<g style=""  paint-order="stroke"   >
		<g transform="matrix(0.30897430505164697 0 0 -0.30897430505164697 0.7724357626291294 0.7724357626291294)"  >
<path style="stroke: none; stroke-width: 1; stroke-dasharray: none; stroke-linecap: butt; stroke-dashoffset: 0; stroke-linejoin: miter; stroke-miterlimit: 4; fill: rgb(10,26,37); fill-rule: nonzero; opacity: 1;"  paint-order="stroke"  transform=" translate(-510.898, -700.6095)" d="M 825.898 504.789 C 825.898 528.367 806.715 547.547 783.1370000000001 547.547 L 769.9340000000001 547.547 L 769.9340000000001 619.645 L 783.1370000000001 619.645 C 806.715 619.645 825.898 638.824 825.898 662.4019999999999 L 825.898 738.8159999999999 C 825.898 762.3979999999999 806.715 781.578 783.1370000000001 781.578 L 706.719 781.578 C 705.863 781.578 705.0350000000001 781.453 704.211 781.3439999999999 L 700.035 780.8589999999999 L 591.1479999999999 889.7459999999999 L 591.6089999999999 893.7889999999999 C 591.742 894.7459999999999 591.8629999999999 895.5739999999998 591.8629999999999 896.4299999999998 L 591.8629999999999 972.8479999999998 C 591.8629999999999 996.4259999999998 572.688 1015.6099999999999 549.1049999999999 1015.6099999999999 L 472.6909999999999 1015.6099999999999 C 449.1089999999999 1015.6099999999999 429.9339999999999 996.4259999999999 429.9339999999999 972.848 L 429.9339999999999 896.43 C 429.9339999999999 895.574 430.0549999999999 894.746 430.1679999999999 893.9219999999999 L 430.6479999999999 889.7459999999999 L 321.76199999999994 780.8589999999999 L 317.71899999999994 781.324 C 316.76199999999994 781.453 315.9339999999999 781.578 315.0779999999999 781.578 L 238.66 781.578 C 215.082 781.578 195.898 762.398 195.898 738.816 L 195.898 662.402 C 195.898 638.8240000000001 215.082 619.6450000000001 238.66 619.6450000000001 L 251.863 619.6450000000001 L 251.863 547.547 L 238.66 547.547 C 215.082 547.547 195.898 528.3670000000001 195.898 504.78900000000004 L 195.898 428.37500000000006 C 195.898 404.7970000000001 215.082 385.60900000000004 238.66 385.60900000000004 L 315.078 385.60900000000004 C 338.65599999999995 385.60900000000004 357.83599999999996 404.797 357.83599999999996 428.37500000000006 L 357.83599999999996 504.78900000000004 C 357.83599999999996 528.3670000000001 338.65599999999995 547.547 315.078 547.547 L 301.863 547.547 L 301.863 619.645 L 315.078 619.645 C 338.65599999999995 619.645 357.83599999999996 638.824 357.83599999999996 662.4019999999999 L 357.83599999999996 738.8159999999999 C 357.83599999999996 739.6719999999999 357.71899999999994 740.4879999999999 357.60499999999996 741.309 L 357.11699999999996 745.512 L 465.996 854.391 L 470.039 853.9259999999999 C 471.02 853.789 471.836 853.6719999999999 472.691 853.6719999999999 L 549.105 853.6719999999999 C 549.961 853.6719999999999 550.777 853.7889999999999 551.5980000000001 853.9019999999999 L 555.801 854.391 L 664.6800000000001 745.512 L 664.215 741.4689999999999 C 664.0780000000001 740.4879999999999 663.961 739.6719999999999 663.961 738.8159999999999 L 663.961 662.4019999999999 C 663.961 638.824 683.141 619.645 706.719 619.645 L 719.9340000000001 619.645 L 719.9340000000001 547.547 L 706.719 547.547 C 683.1410000000001 547.547 663.961 528.3670000000001 663.961 504.78900000000004 L 663.961 491.57800000000003 L 591.863 491.57800000000003 L 591.863 504.78900000000004 C 591.863 528.3670000000001 572.6880000000001 547.547 549.105 547.547 L 472.69100000000003 547.547 C 449.10900000000004 547.547 429.934 528.3670000000001 429.934 504.78900000000004 L 429.934 428.37500000000006 C 429.934 404.7970000000001 449.10900000000004 385.60900000000004 472.69100000000003 385.60900000000004 L 549.105 385.60900000000004 C 572.688 385.60900000000004 591.863 404.797 591.863 428.37500000000006 L 591.863 441.57800000000003 L 663.961 441.57800000000003 L 663.961 428.37500000000006 C 663.961 404.7970000000001 683.141 385.60900000000004 706.719 385.60900000000004 L 783.1370000000001 385.60900000000004 C 806.715 385.60900000000004 825.898 404.797 825.898 428.37500000000006 L 825.898 504.78900000000004" stroke-linecap="round" />
</g>
		<g transform="matrix(0.30897430505164697 0 0 -0.30897430505164697 0.7725902497816719 0.7718178140190162)"  >
<path style="stroke: none; stroke-width: 1; stroke-dasharray: none; stroke-linecap: butt; stroke-dashoffset: 0; stroke-linejoin: miter; stroke-miterlimit: 4; fill: rgb(55,182,255); fill-rule: nonzero; opacity: 1;"  paint-order="stroke"  transform=" translate(-510.8985, -700.6115)" d="M 591.863 738.816 C 591.863 762.398 572.6880000000001 781.578 549.105 781.578 L 472.69100000000003 781.578 C 449.10900000000004 781.578 429.934 762.398 429.934 738.816 L 429.934 662.402 C 429.934 638.8240000000001 449.10900000000004 619.6450000000001 472.69100000000003 619.6450000000001 L 549.105 619.6450000000001 C 572.688 619.6450000000001 591.863 638.8240000000001 591.863 662.402 L 591.863 738.816" stroke-linecap="round" />
</g>
		<g transform="matrix(0.30897430505164697 0 0 -0.30897430505164697 73.08215583532365 -71.53728431006533)"  >
<path style="stroke: none; stroke-width: 1; stroke-dasharray: none; stroke-linecap: butt; stroke-dashoffset: 0; stroke-linejoin: miter; stroke-miterlimit: 4; fill: rgb(55,182,255); fill-rule: nonzero; opacity: 1;"  paint-order="stroke"  transform=" translate(-744.9295, -934.6409999999998)" d="M 825.898 972.848 C 825.898 996.4259999999999 806.715 1015.6099999999999 783.1370000000001 1015.6099999999999 L 706.719 1015.6099999999999 C 683.1410000000001 1015.6099999999999 663.961 996.4259999999999 663.961 972.848 L 663.961 896.43 C 663.961 872.852 683.141 853.6719999999999 706.719 853.6719999999999 L 783.1370000000001 853.6719999999999 C 806.715 853.6719999999999 825.898 872.8519999999999 825.898 896.43 L 825.898 972.848" stroke-linecap="round" />
</g>
		<g transform="matrix(0.30897430505164697 0 0 -0.30897430505164697 -71.53712982291285 -71.53728431006539)"  >
<path style="stroke: none; stroke-width: 1; stroke-dasharray: none; stroke-linecap: butt; stroke-dashoffset: 0; stroke-linejoin: miter; stroke-miterlimit: 4; fill: rgb(55,182,255); fill-rule: nonzero; opacity: 1;"  paint-order="stroke"  transform=" translate(-276.86699999999996, -934.641)" d="M 315.078 1020.61 L 238.66 1020.61 C 212.324 1020.61 190.898 999.184 190.898 972.848 L 190.898 896.43 C 190.898 870.098 212.32399999999998 848.6719999999999 238.66 848.6719999999999 L 315.078 848.6719999999999 C 341.40999999999997 848.6719999999999 362.83599999999996 870.098 362.83599999999996 896.43 L 362.83599999999996 972.848 C 362.83599999999996 999.184 341.40999999999997 1020.6099999999999 315.078 1020.6099999999999" stroke-linecap="round" />
</g>
</g>
</g>
<g transform="matrix(1.9211538461538462 0 0 1.9211538461538462 857.3415827361035 749.8061869490563)" id="tagline-b54afee7-ec53-424a-a242-9ddca8697f42-logo"  >
<g style=""  paint-order="stroke"   >
		<g transform="matrix(1 0 0 1 0 0)" id="tagline-b54afee7-ec53-424a-a242-9ddca8697f42-logo-path-0"  >
<path style="stroke: none; stroke-width: 0; stroke-dasharray: none; stroke-linecap: butt; stroke-dashoffset: 0; stroke-linejoin: miter; stroke-miterlimit: 4; fill: rgb(55,182,255); fill-rule: nonzero; opacity: 1;"  paint-order="stroke"  transform=" translate(-23.56, 5.25)" d="M 2.69 0.21 C 3.72 0.21 4.47 -0.53 4.47 -1.58 C 4.47 -2.6 3.74 -3.36 2.69 -3.36 C 1.66 -3.36 0.9 -2.63 0.9 -1.58 C 0.9 -0.55 1.64 0.21 2.69 0.21 Z M 11.74 0.34 C 13.48 0.34 14.93 -0.32 15.92 -1.39 L 13.63 -3.51 C 13.19 -2.94 12.54 -2.6 11.74 -2.6 C 10.31 -2.6 9.3 -3.7 9.3 -5.25 C 9.3 -6.78 10.31 -7.9 11.74 -7.9 C 12.45 -7.9 13.08 -7.62 13.5 -7.14 L 15.65 -9.41 C 14.66 -10.31 13.31 -10.84 11.74 -10.84 C 8.46 -10.84 6.15 -8.55 6.15 -5.27 C 6.15 -2 8.46 0.34 11.74 0.34 Z M 22.39 0.34 C 25.68 0.34 27.97 -1.97 27.97 -5.27 C 27.97 -8.55 25.68 -10.84 22.39 -10.84 C 19.11 -10.84 16.8 -8.55 16.8 -5.27 C 16.8 -1.97 19.11 0.34 22.39 0.34 Z M 22.39 -2.6 C 20.96 -2.6 19.95 -3.7 19.95 -5.25 C 19.95 -6.8 20.96 -7.9 22.39 -7.9 C 23.81 -7.9 24.82 -6.8 24.82 -5.25 C 24.82 -3.7 23.81 -2.6 22.39 -2.6 Z M 43.07 -5.86 L 43.07 0 L 46.22 0 L 46.22 -6.49 C 46.22 -9.13 44.98 -10.84 42.42 -10.84 C 40.95 -10.84 39.84 -10.25 39.08 -9.24 C 38.51 -10.25 37.48 -10.84 35.87 -10.84 C 34.59 -10.84 33.7 -10.37 33.12 -9.6 L 33.12 -10.5 L 29.97 -10.5 L 29.97 0 L 33.12 0 L 33.12 -5.25 C 33.12 -6.8 33.7 -7.9 35.03 -7.9 C 36.16 -7.9 36.52 -7.14 36.52 -5.86 L 36.52 0 L 39.67 0 L 39.67 -5.25 C 39.67 -6.8 40.26 -7.9 41.58 -7.9 C 42.71 -7.9 43.07 -7.14 43.07 -5.86 Z" stroke-linecap="round" />
</g>
</g>
</g>
</svg>