<?xml version="1.0" encoding="UTF-8" standalone="no" ?>
<!DOCTYPE svg PUBLIC "-//W3C//DTD SVG 1.1//EN" "http://www.w3.org/Graphics/SVG/1.1/DTD/svg11.dtd">
<svg xmlns="http://www.w3.org/2000/svg" xmlns:xlink="http://www.w3.org/1999/xlink" version="1.1" width="1280" height="1024" viewBox="0 0 1280 1024" xml:space="preserve">
<desc>Created with Fabric.js 5.3.0</desc>
<defs>
</defs>
<g transform="matrix(1 0 0 1 640 512)" id="background-logo"  >
<rect style="stroke: none; stroke-width: 0; stroke-dasharray: none; stroke-linecap: butt; stroke-dashoffset: 0; stroke-linejoin: miter; stroke-miterlimit: 4; fill: rgb(255,255,255); fill-rule: nonzero; opacity: 1;"  paint-order="stroke"  x="-640" y="-512" rx="0" ry="0" width="1280" height="1024" />
</g>
<g transform="matrix(2.9000023930793097 0 0 2.9000023930793097 639.591415817519 511.5563943161634)" id="logo-logo"  >
<g style=""  paint-order="stroke"   >
		<g transform="matrix(0.30897430505164697 0 0 -0.30897430505164697 0.7724357626291294 0.7724357626291294)"  >
<path style="stroke: none; stroke-width: 1; stroke-dasharray: none; stroke-linecap: butt; stroke-dashoffset: 0; stroke-linejoin: miter; stroke-miterlimit: 4; fill: rgb(10,26,37); fill-rule: nonzero; opacity: 1;"  paint-order="stroke"  transform=" translate(-510.898, -700.6095)" d="M 825.898 504.789 C 825.898 528.367 806.715 547.547 783.1370000000001 547.547 L 769.9340000000001 547.547 L 769.9340000000001 619.645 L 783.1370000000001 619.645 C 806.715 619.645 825.898 638.824 825.898 662.4019999999999 L 825.898 738.8159999999999 C 825.898 762.3979999999999 806.715 781.578 783.1370000000001 781.578 L 706.719 781.578 C 705.863 781.578 705.0350000000001 781.453 704.211 781.3439999999999 L 700.035 780.8589999999999 L 591.1479999999999 889.7459999999999 L 591.6089999999999 893.7889999999999 C 591.742 894.7459999999999 591.8629999999999 895.5739999999998 591.8629999999999 896.4299999999998 L 591.8629999999999 972.8479999999998 C 591.8629999999999 996.4259999999998 572.688 1015.6099999999999 549.1049999999999 1015.6099999999999 L 472.6909999999999 1015.6099999999999 C 449.1089999999999 1015.6099999999999 429.9339999999999 996.4259999999999 429.9339999999999 972.848 L 429.9339999999999 896.43 C 429.9339999999999 895.574 430.0549999999999 894.746 430.1679999999999 893.9219999999999 L 430.6479999999999 889.7459999999999 L 321.76199999999994 780.8589999999999 L 317.71899999999994 781.324 C 316.76199999999994 781.453 315.9339999999999 781.578 315.0779999999999 781.578 L 238.66 781.578 C 215.082 781.578 195.898 762.398 195.898 738.816 L 195.898 662.402 C 195.898 638.8240000000001 215.082 619.6450000000001 238.66 619.6450000000001 L 251.863 619.6450000000001 L 251.863 547.547 L 238.66 547.547 C 215.082 547.547 195.898 528.3670000000001 195.898 504.78900000000004 L 195.898 428.37500000000006 C 195.898 404.7970000000001 215.082 385.60900000000004 238.66 385.60900000000004 L 315.078 385.60900000000004 C 338.65599999999995 385.60900000000004 357.83599999999996 404.797 357.83599999999996 428.37500000000006 L 357.83599999999996 504.78900000000004 C 357.83599999999996 528.3670000000001 338.65599999999995 547.547 315.078 547.547 L 301.863 547.547 L 301.863 619.645 L 315.078 619.645 C 338.65599999999995 619.645 357.83599999999996 638.824 357.83599999999996 662.4019999999999 L 357.83599999999996 738.8159999999999 C 357.83599999999996 739.6719999999999 357.71899999999994 740.4879999999999 357.60499999999996 741.309 L 357.11699999999996 745.512 L 465.996 854.391 L 470.039 853.9259999999999 C 471.02 853.789 471.836 853.6719999999999 472.691 853.6719999999999 L 549.105 853.6719999999999 C 549.961 853.6719999999999 550.777 853.7889999999999 551.5980000000001 853.9019999999999 L 555.801 854.391 L 664.6800000000001 745.512 L 664.215 741.4689999999999 C 664.0780000000001 740.4879999999999 663.961 739.6719999999999 663.961 738.8159999999999 L 663.961 662.4019999999999 C 663.961 638.824 683.141 619.645 706.719 619.645 L 719.9340000000001 619.645 L 719.9340000000001 547.547 L 706.719 547.547 C 683.1410000000001 547.547 663.961 528.3670000000001 663.961 504.78900000000004 L 663.961 491.57800000000003 L 591.863 491.57800000000003 L 591.863 504.78900000000004 C 591.863 528.3670000000001 572.6880000000001 547.547 549.105 547.547 L 472.69100000000003 547.547 C 449.10900000000004 547.547 429.934 528.3670000000001 429.934 504.78900000000004 L 429.934 428.37500000000006 C 429.934 404.7970000000001 449.10900000000004 385.60900000000004 472.69100000000003 385.60900000000004 L 549.105 385.60900000000004 C 572.688 385.60900000000004 591.863 404.797 591.863 428.37500000000006 L 591.863 441.57800000000003 L 663.961 441.57800000000003 L 663.961 428.37500000000006 C 663.961 404.7970000000001 683.141 385.60900000000004 706.719 385.60900000000004 L 783.1370000000001 385.60900000000004 C 806.715 385.60900000000004 825.898 404.797 825.898 428.37500000000006 L 825.898 504.78900000000004" stroke-linecap="round" />
</g>
		<g transform="matrix(0.30897430505164697 0 0 -0.30897430505164697 0.7725902497816719 0.7718178140190162)"  >
<path style="stroke: none; stroke-width: 1; stroke-dasharray: none; stroke-linecap: butt; stroke-dashoffset: 0; stroke-linejoin: miter; stroke-miterlimit: 4; fill: rgb(55,182,255); fill-rule: nonzero; opacity: 1;"  paint-order="stroke"  transform=" translate(-510.8985, -700.6115)" d="M 591.863 738.816 C 591.863 762.398 572.6880000000001 781.578 549.105 781.578 L 472.69100000000003 781.578 C 449.10900000000004 781.578 429.934 762.398 429.934 738.816 L 429.934 662.402 C 429.934 638.8240000000001 449.10900000000004 619.6450000000001 472.69100000000003 619.6450000000001 L 549.105 619.6450000000001 C 572.688 619.6450000000001 591.863 638.8240000000001 591.863 662.402 L 591.863 738.816" stroke-linecap="round" />
</g>
		<g transform="matrix(0.30897430505164697 0 0 -0.30897430505164697 73.08215583532365 -71.53728431006533)"  >
<path style="stroke: none; stroke-width: 1; stroke-dasharray: none; stroke-linecap: butt; stroke-dashoffset: 0; stroke-linejoin: miter; stroke-miterlimit: 4; fill: rgb(55,182,255); fill-rule: nonzero; opacity: 1;"  paint-order="stroke"  transform=" translate(-744.9295, -934.6409999999998)" d="M 825.898 972.848 C 825.898 996.4259999999999 806.715 1015.6099999999999 783.1370000000001 1015.6099999999999 L 706.719 1015.6099999999999 C 683.1410000000001 1015.6099999999999 663.961 996.4259999999999 663.961 972.848 L 663.961 896.43 C 663.961 872.852 683.141 853.6719999999999 706.719 853.6719999999999 L 783.1370000000001 853.6719999999999 C 806.715 853.6719999999999 825.898 872.8519999999999 825.898 896.43 L 825.898 972.848" stroke-linecap="round" />
</g>
		<g transform="matrix(0.30897430505164697 0 0 -0.30897430505164697 -71.53712982291285 -71.53728431006539)"  >
<path style="stroke: none; stroke-width: 1; stroke-dasharray: none; stroke-linecap: butt; stroke-dashoffset: 0; stroke-linejoin: miter; stroke-miterlimit: 4; fill: rgb(55,182,255); fill-rule: nonzero; opacity: 1;"  paint-order="stroke"  transform=" translate(-276.86699999999996, -934.641)" d="M 315.078 1020.61 L 238.66 1020.61 C 212.324 1020.61 190.898 999.184 190.898 972.848 L 190.898 896.43 C 190.898 870.098 212.32399999999998 848.6719999999999 238.66 848.6719999999999 L 315.078 848.6719999999999 C 341.40999999999997 848.6719999999999 362.83599999999996 870.098 362.83599999999996 896.43 L 362.83599999999996 972.848 C 362.83599999999996 999.184 341.40999999999997 1020.6099999999999 315.078 1020.6099999999999" stroke-linecap="round" />
</g>
</g>
</g>
</svg>